<svg width="820" height="312" viewBox="0 0 820 312" fill="none" xmlns="http://www.w3.org/2000/svg">
<rect width="820" height="312" rx="20" fill="url(#paint0_linear)"/>
<path d="M426.438 146.691V135.09C426.438 131.18 429.618 128 433.527 128H445.129C449.038 128 452.219 131.18 452.219 135.09V146.691C452.219 150.601 449.038 153.781 445.129 153.781H433.527C429.618 153.781 426.438 150.601 426.438 146.691ZM448.781 135.09C448.781 133.076 447.143 131.438 445.129 131.438H433.527C431.513 131.438 429.875 133.076 429.875 135.09V146.691C429.875 148.705 431.513 150.344 433.527 150.344H445.129C447.143 150.344 448.781 148.705 448.781 146.691V135.09Z" fill="#F6F6F6"/>
<path d="M426.438 175.91V164.309C426.438 160.399 429.618 157.219 433.527 157.219H445.129C449.038 157.219 452.219 160.399 452.219 164.309V175.91C452.219 179.82 449.038 183 445.129 183H433.527C429.618 183 426.438 179.82 426.438 175.91ZM448.781 164.309C448.781 162.295 447.143 160.656 445.129 160.656H433.527C431.513 160.656 429.875 162.295 429.875 164.309V175.91C429.875 177.924 431.513 179.562 433.527 179.562H445.129C447.143 179.562 448.781 177.924 448.781 175.91V164.309Z" fill="#F6F6F6"/>
<path d="M397.219 161.301V149.699C397.219 145.79 400.399 142.609 404.309 142.609H415.91C419.82 142.609 423 145.79 423 149.699V161.301C423 165.21 419.82 168.391 415.91 168.391H404.309C400.399 168.391 397.219 165.21 397.219 161.301ZM419.562 149.699C419.562 147.685 417.924 146.047 415.91 146.047H404.309C402.295 146.047 400.656 147.685 400.656 149.699V161.301C400.656 163.315 402.295 164.953 404.309 164.953H415.91C417.924 164.953 419.562 163.315 419.562 161.301V149.699Z" fill="#F6F6F6"/>
<path d="M368 146.691V135.09C368 131.18 371.18 128 375.09 128H386.691C390.601 128 393.781 131.18 393.781 135.09V146.691C393.781 150.601 390.601 153.781 386.691 153.781H375.09C371.18 153.781 368 150.601 368 146.691ZM390.344 135.09C390.344 133.076 388.705 131.438 386.691 131.438H375.09C373.076 131.438 371.438 133.076 371.438 135.09V146.691C371.438 148.705 373.076 150.344 375.09 150.344H386.691C388.705 150.344 390.344 148.705 390.344 146.691V135.09Z" fill="#F6F6F6"/>
<path d="M368 175.91V164.309C368 160.399 371.18 157.219 375.09 157.219H386.691C390.601 157.219 393.781 160.399 393.781 164.309V175.91C393.781 179.82 390.601 183 386.691 183H375.09C371.18 183 368 179.82 368 175.91ZM390.344 164.309C390.344 162.295 388.705 160.656 386.691 160.656H375.09C373.076 160.656 371.438 162.295 371.438 164.309V175.91C371.438 177.924 373.076 179.562 375.09 179.562H386.691C388.705 179.562 390.344 177.924 390.344 175.91V164.309Z" fill="#F6F6F6"/>
<defs>
<linearGradient id="paint0_linear" x1="0" y1="0" x2="820" y2="312" gradientUnits="userSpaceOnUse">
<stop stop-color="#F38804"/>
<stop offset="0.25" stop-color="#A78C34"/>
<stop offset="0.713542" stop-color="#008B9B"/>
<stop offset="1" stop-color="#56B4D3"/>
</linearGradient>
</defs>
</svg>
