<svg width="392" height="256" viewBox="0 0 392 256" fill="none" xmlns="http://www.w3.org/2000/svg">
<path d="M272 87V33C272 14.8035 286.803 0 305 0L359 0C377.197 0 392 14.8035 392 33V87C392 105.197 377.197 120 359 120L305 120C286.803 120 272 105.197 272 87ZM376 33C376 23.626 368.374 16 359 16L305 16C295.626 16 288 23.626 288 33V87C288 96.374 295.626 104 305 104L359 104C368.374 104 376 96.374 376 87V33Z" fill="#E01F3D"/>
<path d="M272 223V169C272 150.803 286.803 136 305 136L359 136C377.197 136 392 150.803 392 169V223C392 241.197 377.197 256 359 256H305C286.803 256 272 241.197 272 223ZM376 169C376 159.626 368.374 152 359 152L305 152C295.626 152 288 159.626 288 169V223C288 232.374 295.626 240 305 240H359C368.374 240 376 232.374 376 223V169Z" fill="#E01F3D"/>
<path d="M136 155V101C136 82.8035 150.803 68 169 68L223 68C241.197 68 256 82.8035 256 101V155C256 173.197 241.197 188 223 188H169C150.803 188 136 173.197 136 155ZM240 101C240 91.626 232.374 84 223 84L169 84C159.626 84 152 91.626 152 101V155C152 164.374 159.626 172 169 172H223C232.374 172 240 164.374 240 155L240 101Z" fill="#E01F3D"/>
<path d="M0 87L0 33C0 14.8035 14.8035 0 33 0L87 0C105.197 0 120 14.8035 120 33L120 87C120 105.197 105.197 120 87 120L33 120C14.8035 120 0 105.197 0 87ZM104 33C104 23.626 96.374 16 87 16L33 16C23.626 16 16 23.626 16 33L16 87C16 96.374 23.626 104 33 104L87 104C96.374 104 104 96.374 104 87L104 33Z" fill="#E01F3D"/>
<path d="M0 223L0 169C0 150.803 14.8035 136 33 136L87 136C105.197 136 120 150.803 120 169L120 223C120 241.197 105.197 256 87 256H33C14.8035 256 0 241.197 0 223ZM104 169C104 159.626 96.374 152 87 152L33 152C23.626 152 16 159.626 16 169L16 223C16 232.374 23.626 240 33 240H87C96.374 240 104 232.374 104 223L104 169Z" fill="#E01F3D"/>
</svg>
